<svg width="226" height="33" viewBox="0 0 226 33" fill="none" xmlns="http://www.w3.org/2000/svg">
<path d="M185.582 24.9688V32H168.18V24.9688H171.383V7.80078H168.629L167.789 13.1523H162.301V0.925781H191.539V13.1523H186.07L185.23 7.80078H182.379V24.9688H185.582Z" fill="#91C788"/>
<path d="M145.035 32.5664C140.4 32.5664 137.06 31.3555 135.016 28.9336C132.984 26.4987 131.969 22.931 131.969 18.2305V7.80078H128.805V0.925781H145.758V7.80078H142.887V20.8867C142.887 22.1628 143.199 23.2109 143.824 24.0312C144.449 24.8385 145.432 25.2422 146.773 25.2422C147.893 25.2422 148.779 24.9102 149.43 24.2461C150.081 23.569 150.406 22.6576 150.406 21.5117V7.80078H147.203V0.925781H159.957V7.80078H156.969V21.2383C156.969 23.7253 156.467 25.8151 155.465 27.5078C154.475 29.1875 153.089 30.4505 151.305 31.2969C149.521 32.1432 147.431 32.5664 145.035 32.5664Z" fill="#91C788"/>
<path d="M110.133 32.5664C106.891 32.5664 104.085 31.8698 101.715 30.4766C99.3581 29.0833 97.5612 27.1693 96.3242 24.7344C95.1003 22.2995 94.4883 19.5195 94.4883 16.3945C94.4883 13.1523 95.1003 10.3268 96.3242 7.91797C97.5482 5.49609 99.332 3.6276 101.676 2.3125C104.033 0.984375 106.852 0.320312 110.133 0.320312C113.401 0.320312 116.214 0.977865 118.57 2.29297C120.914 3.62109 122.698 5.49609 123.922 7.91797C125.159 10.3398 125.777 13.1654 125.777 16.3945C125.777 19.5195 125.165 22.2995 123.941 24.7344C122.717 27.1693 120.921 29.0833 118.551 30.4766C116.194 31.8698 113.388 32.5664 110.133 32.5664ZM110.133 25.6328C111.539 25.6328 112.613 24.7799 113.355 23.0742C114.111 21.3685 114.488 19.0898 114.488 16.2383C114.488 13.4648 114.124 11.2708 113.395 9.65625C112.678 8.04167 111.591 7.23438 110.133 7.23438C108.661 7.23438 107.568 8.04167 106.852 9.65625C106.135 11.2708 105.777 13.4648 105.777 16.2383C105.777 19.0898 106.148 21.3685 106.891 23.0742C107.633 24.7799 108.714 25.6328 110.133 25.6328Z" fill="#91C788"/>
<path d="M78.0625 32H61.832V25.125H64.957V7.80078H61.832V0.925781H81.793C85.0221 0.925781 87.3919 1.57682 88.9023 2.87891C90.4258 4.18099 91.1875 6.34245 91.1875 9.36328C91.1875 11.3815 90.6211 12.9375 89.4883 14.0312C88.3555 15.125 86.7474 15.8607 84.6641 16.2383C86.5391 16.5378 87.8867 17.2409 88.707 18.3477C89.5404 19.4544 89.957 20.8346 89.957 22.4883V25.0078H94.3125V32H88.0234C86.6823 32 85.6016 31.9544 84.7812 31.8633C83.9609 31.7591 83.3099 31.5247 82.8281 31.1602C82.3594 30.7826 81.9688 30.1966 81.6562 29.4023C81.1875 28.2044 80.9531 26.2057 80.9531 23.4062C80.9531 21.8047 80.6927 20.6198 80.1719 19.8516C79.651 19.0703 78.7005 18.6797 77.3203 18.6797H74.957V25.125H78.0625V32ZM74.957 7.80078V14.2461H77.6328C79.0521 14.2461 80.1068 13.9922 80.7969 13.4844C81.487 12.9766 81.832 12.0846 81.832 10.8086C81.832 9.87109 81.474 9.13542 80.7578 8.60156C80.0547 8.06771 79.1432 7.80078 78.0234 7.80078H74.957Z" fill="#91C788"/>
<path d="M44.8398 32H28.043V25.0078H31.0898V7.80078H28.1211V0.886719H44.7617C47.3138 0.886719 49.5729 1.16667 51.5391 1.72656C53.5182 2.27344 55.0677 3.19792 56.1875 4.5C57.3203 5.80208 57.8867 7.59245 57.8867 9.87109C57.8867 13.8555 56.806 16.7201 54.6445 18.4648C52.4831 20.2096 49.2409 21.082 44.918 21.082C43.8112 21.082 42.8411 21.0169 42.0078 20.8867V25.0078H44.8398V32ZM42.0469 7.80078V14.7148H42.8477C45.8034 14.7148 47.2812 13.4128 47.2812 10.8086C47.2812 9.84505 46.9557 9.10286 46.3047 8.58203C45.6536 8.0612 44.7812 7.80078 43.6875 7.80078H42.0469Z" fill="#91C788"/>
<path d="M15.1133 32.5664C14.0456 32.5664 13.1341 32.4883 12.3789 32.332C11.6237 32.1758 10.9206 31.9219 10.2695 31.5703C9.63151 31.2188 8.94792 30.763 8.21875 30.2031L7.53516 32H1.22656V22.4883H7.49609C7.89974 23.582 8.51823 24.3568 9.35156 24.8125C10.1979 25.2552 11.2331 25.4766 12.457 25.4766C13.2122 25.4766 13.8568 25.3268 14.3906 25.0273C14.9245 24.7148 15.1914 24.3047 15.1914 23.7969C15.1914 23.1589 14.918 22.6836 14.3711 22.3711C13.8242 22.0456 13.056 21.7461 12.0664 21.4727C10.8034 21.1341 9.65755 20.776 8.62891 20.3984C7.61328 20.0208 6.70182 19.6302 5.89453 19.2266C4.27995 18.4193 2.97786 17.2734 1.98828 15.7891C0.998698 14.3047 0.503906 12.332 0.503906 9.87109C0.503906 7.98307 0.914062 6.31641 1.73438 4.87109C2.54167 3.4388 3.70052 2.32552 5.21094 1.53125C6.73438 0.723958 8.52474 0.320312 10.582 0.320312C13.0951 0.320312 15.0807 1.12109 16.5391 2.72266L17.5352 0.886719H23.1406V10.2031H17.1445C16.5846 9.03125 15.9661 8.21745 15.2891 7.76172C14.612 7.30599 13.681 7.07812 12.4961 7.07812C11.5977 7.07812 10.901 7.24089 10.4062 7.56641C9.91146 7.87891 9.66406 8.3151 9.66406 8.875C9.66406 9.5 10.0221 9.97526 10.7383 10.3008C11.4414 10.6393 12.444 10.9518 13.7461 11.2383C16.0247 11.7591 17.9909 12.4167 19.6445 13.2109C21.2591 14.0052 22.5482 15.1315 23.5117 16.5898C24.4883 18.0352 24.9766 19.9036 24.9766 22.1953C24.9766 24.1354 24.5729 25.8932 23.7656 27.4688C22.9453 29.0443 21.7799 30.2878 20.2695 31.1992C18.7721 32.1107 17.0534 32.5664 15.1133 32.5664Z" fill="#91C788"/>
<path d="M212.596 21.4185C211.846 22.7183 208.498 22.1903 205.119 20.2393C201.739 18.2883 199.608 15.653 200.359 14.3533C201.109 13.0536 204.457 13.5816 207.836 15.5326C211.215 17.4836 213.346 20.1188 212.596 21.4185Z" fill="#91C788"/>
<path d="M224.575 14.4457C225.326 15.7454 223.195 18.3806 219.815 20.3316C216.436 22.2827 213.088 22.8106 212.338 21.5109C211.588 20.2112 213.719 17.576 217.098 15.625C220.477 13.674 223.825 13.146 224.575 14.4457Z" fill="#91C788"/>
<path d="M212.043 21.1305H213.783V32.0001H212.043V21.1305Z" fill="#91C788"/>
</svg>
